<svg width="36" height="40" viewBox="0 0 36 40" fill="none" xmlns="http://www.w3.org/2000/svg">
<g clip-path="url(#clip0)">
<path d="M6.09082 3.19501V37.945H29.9508V3.19501H6.09082ZM20.0908 7.70501H25.8308V11.195H20.0908V7.70501ZM20.0908 12.825H25.8308V16.315H20.0908V12.825ZM20.0908 17.955H25.8308V21.445H20.0908V17.955ZM15.7108 26.565H9.97082V23.075H15.7108V26.565ZM15.7108 21.445H9.97082V17.945H15.7108V21.445ZM15.7108 16.315H9.97082V12.825H15.7108V16.315ZM15.7108 11.195H9.97082V7.70501H15.7108V11.195ZM20.0908 26.565V23.075H25.8308V26.565H20.0908Z" fill="#38C2D5"/>
<path d="M27.8904 0.945007H8.15039V3.18501H27.8904V0.945007Z" fill="#38C2D5"/>
<path d="M20.2703 31.385H15.7803V37.885H20.2703V31.385Z" fill="#0FAEC2"/>
<path d="M31.9905 32.185C32.3745 31.8087 32.6786 31.3588 32.8848 30.8622C33.091 30.3657 33.195 29.8327 33.1905 29.295C33.1914 28.633 33.0279 27.981 32.7147 27.3977C32.4015 26.8144 31.9485 26.3179 31.3961 25.9529C30.8438 25.5878 30.2095 25.3655 29.5501 25.306C28.8907 25.2465 28.2269 25.3516 27.6181 25.6118C27.0093 25.8721 26.4747 26.2794 26.0621 26.7972C25.6495 27.315 25.3719 27.9271 25.2542 28.5786C25.1365 29.2301 25.1824 29.9007 25.3877 30.5301C25.593 31.1596 25.9513 31.7282 26.4305 32.185C25.4481 32.7052 24.6269 33.4844 24.0557 34.438C23.4846 35.3917 23.1854 36.4834 23.1905 37.595C23.1905 37.8311 23.2843 38.0574 23.4512 38.2244C23.6181 38.3913 23.8445 38.485 24.0805 38.485H34.4205C34.6565 38.485 34.8829 38.3913 35.0498 38.2244C35.2167 38.0574 35.3105 37.8311 35.3105 37.595C35.3091 36.475 34.9984 35.377 34.4125 34.4224C33.8267 33.4677 32.9885 32.6935 31.9905 32.185Z" fill="#38C2D5" stroke="#DBF4F8" stroke-miterlimit="10"/>
<path d="M9.53043 32.185C10.1076 31.6329 10.5062 30.9207 10.675 30.1401C10.8439 29.3594 10.7751 28.5461 10.4777 27.8049C10.1803 27.0637 9.66773 26.4285 9.00612 25.9811C8.34451 25.5337 7.56411 25.2946 6.76543 25.2946C5.96675 25.2946 5.18635 25.5337 4.52474 25.9811C3.86313 26.4285 3.3506 27.0637 3.05316 27.8049C2.75572 28.5461 2.68699 29.3594 2.85581 30.1401C3.02464 30.9207 3.42329 31.6329 4.00043 32.185C3.005 32.6957 2.1695 33.4708 1.5856 34.4251C1.0017 35.3795 0.691984 36.4762 0.69043 37.595C0.69043 37.8311 0.784197 38.0574 0.951105 38.2243C1.03375 38.307 1.13186 38.3725 1.23984 38.4173C1.34782 38.462 1.46355 38.485 1.58043 38.485H11.9504C12.0673 38.485 12.183 38.462 12.291 38.4173C12.399 38.3725 12.4971 38.307 12.5798 38.2243C12.6624 38.1417 12.728 38.0436 12.7727 37.9356C12.8174 37.8276 12.8404 37.7119 12.8404 37.595C12.8389 36.4762 12.5292 35.3795 11.9453 34.4251C11.3614 33.4708 10.5259 32.6957 9.53043 32.185Z" fill="#38C2D5" stroke="#DBF4F8" stroke-miterlimit="10"/>
<path d="M20.7704 32.255C21.1617 31.8821 21.4732 31.4337 21.6864 30.937C21.8995 30.4403 22.0097 29.9055 22.0104 29.365C22.0113 28.703 21.8478 28.051 21.5346 27.4677C21.2215 26.8844 20.7684 26.3879 20.2161 26.0229C19.6637 25.6578 19.0294 25.4355 18.3701 25.376C17.7107 25.3165 17.0468 25.4216 16.438 25.6818C15.8293 25.9421 15.2946 26.3494 14.882 26.8672C14.4695 27.385 14.1919 27.9971 14.0742 28.6486C13.9565 29.3001 14.0023 29.9707 14.2076 30.6001C14.4129 31.2296 14.7712 31.7982 15.2504 32.255C14.2557 32.7666 13.4208 33.5419 12.8371 34.496C12.2533 35.4502 11.9431 36.5465 11.9404 37.665C11.9404 37.9011 12.0342 38.1275 12.2011 38.2944C12.368 38.4613 12.5944 38.555 12.8304 38.555H23.1904C23.4265 38.555 23.6528 38.4613 23.8198 38.2944C23.9867 38.1275 24.0804 37.9011 24.0804 37.665C24.0789 36.5462 23.7692 35.4495 23.1853 34.4952C22.6014 33.5408 21.7659 32.7658 20.7704 32.255Z" fill="#38C2D5" stroke="#DBF4F8" stroke-miterlimit="10"/>
</g>
<defs>
<clipPath id="clip0">
<rect width="35.62" height="38.11" fill="white" transform="translate(0.19043 0.945007)"/>
</clipPath>
</defs>
</svg>
